<svg width="1200" height="360" viewBox="0 0 1200 360" fill="none" xmlns="http://www.w3.org/2000/svg" role="img" aria-labelledby="title desc">
  <title id="title">Finance Tracking System banner</title>
  <desc id="desc">Portfolio command center banner with market cards, risk radar, and asset allocation visuals.</desc>
  <defs>
    <linearGradient id="bg" x1="0" y1="0" x2="1200" y2="360" gradientUnits="userSpaceOnUse">
      <stop stop-color="#080B18"/>
      <stop offset="0.5" stop-color="#172554"/>
      <stop offset="1" stop-color="#312E81"/>
    </linearGradient>
    <radialGradient id="gold" cx="0" cy="0" r="1" gradientUnits="userSpaceOnUse" gradientTransform="translate(930 80) rotate(138) scale(330 230)">
      <stop stop-color="#FBBF24" stop-opacity="0.5"/>
      <stop offset="1" stop-color="#FBBF24" stop-opacity="0"/>
    </radialGradient>
  </defs>
  <rect width="1200" height="360" rx="34" fill="url(#bg)"/>
  <rect width="1200" height="360" rx="34" fill="url(#gold)"/>
  <g opacity="0.18">
    <path d="M88 244L190 172L300 214L412 104L520 156L632 92L750 132L874 64L1010 118L1124 82" stroke="#FDE68A" stroke-width="4"/>
    <path d="M88 288H1124" stroke="#BFDBFE" stroke-width="2"/>
    <path d="M88 218H1124" stroke="#BFDBFE" stroke-width="2"/>
    <path d="M88 148H1124" stroke="#BFDBFE" stroke-width="2"/>
  </g>
  <g transform="translate(80 72)">
    <text x="0" y="0" fill="#FDE68A" font-family="Inter,Segoe UI,Arial,sans-serif" font-size="22" font-weight="800" letter-spacing="4">PORTFOLIO COMMAND CENTER</text>
    <text x="0" y="62" fill="#FFFFFF" font-family="Inter,Segoe UI,Arial,sans-serif" font-size="62" font-weight="900">Finance Tracking System</text>
    <text x="0" y="112" fill="#DBEAFE" font-family="Inter,Segoe UI,Arial,sans-serif" font-size="25" font-weight="500">Live markets, risk radar, transactions, and Oracle-ready workflows.</text>
    <g transform="translate(0 158)">
      <rect width="190" height="54" rx="18" fill="#020617" opacity="0.72" stroke="#FBBF24"/>
      <text x="24" y="35" fill="#FFFFFF" font-family="Inter,Segoe UI,Arial,sans-serif" font-size="18" font-weight="800">Market data</text>
      <rect x="212" width="180" height="54" rx="18" fill="#020617" opacity="0.72" stroke="#93C5FD"/>
      <text x="236" y="35" fill="#FFFFFF" font-family="Inter,Segoe UI,Arial,sans-serif" font-size="18" font-weight="800">Risk radar</text>
      <rect x="414" width="235" height="54" rx="18" fill="#020617" opacity="0.72" stroke="#C4B5FD"/>
      <text x="438" y="35" fill="#FFFFFF" font-family="Inter,Segoe UI,Arial,sans-serif" font-size="18" font-weight="800">Oracle-ready</text>
    </g>
  </g>
  <g transform="translate(820 142)">
    <rect width="260" height="150" rx="28" fill="#F8FAFC" opacity="0.12" stroke="#FDE68A"/>
    <circle cx="84" cy="76" r="46" fill="none" stroke="#FBBF24" stroke-width="18"/>
    <path d="M84 30A46 46 0 0 1 130 76" stroke="#60A5FA" stroke-width="18"/>
    <rect x="158" y="45" width="66" height="12" rx="6" fill="#BFDBFE"/>
    <rect x="158" y="75" width="78" height="12" rx="6" fill="#FDE68A"/>
    <rect x="158" y="105" width="48" height="12" rx="6" fill="#C4B5FD"/>
  </g>
</svg>
